<?xml version="1.0" standalone="no"?>
<!DOCTYPE svg PUBLIC "-//W3C//DTD SVG 20010904//EN"
 "http://www.w3.org/TR/2001/REC-SVG-20010904/DTD/svg10.dtd">
<svg version="1.0" xmlns="http://www.w3.org/2000/svg"
 width="1280.000000pt" height="933.000000pt" viewBox="0 0 1280.000000 933.000000"
 preserveAspectRatio="xMidYMid meet">
<metadata>
Created by potrace 1.15, written by Peter Selinger 2001-2017
</metadata>
<g transform="translate(0.000000,933.000000) scale(0.100000,-0.100000)"
fill="#31597A" stroke="none">
<path d="M1525 9323 c-11 -3 -33 -16 -50 -29 -67 -51 -172 -87 -385 -135 -183
-40 -222 -61 -321 -169 -103 -112 -128 -125 -209 -109 -82 16 -170 1 -372 -62
-90 -28 -169 -53 -175 -55 -20 -5 -16 -103 6 -149 23 -49 74 -98 162 -153 61
-39 70 -42 135 -42 38 0 127 7 199 15 72 8 169 15 217 15 84 0 90 -2 235 -64
308 -133 448 -205 633 -329 407 -272 636 -614 706 -1057 9 -58 36 -175 60
-260 77 -273 128 -526 154 -755 16 -139 21 -159 106 -409 170 -498 329 -834
519 -1101 219 -307 484 -514 795 -623 95 -33 125 -38 324 -52 278 -21 387 -69
651 -288 144 -121 220 -166 320 -191 110 -27 130 -38 218 -114 40 -34 84 -70
99 -80 47 -29 136 -47 318 -62 199 -16 251 -30 314 -86 l45 -40 -16 -36 c-42
-102 -153 -223 -261 -286 -145 -84 -271 -122 -702 -207 -335 -67 -439 -98
-707 -211 -501 -211 -648 -256 -872 -265 -90 -3 -112 -8 -165 -34 -33 -16
-101 -39 -151 -51 -174 -40 -215 -58 -276 -116 -139 -133 -180 -297 -200 -798
-6 -159 -14 -326 -18 -370 l-8 -80 71 -104 c83 -122 198 -244 276 -293 97 -62
163 -82 270 -82 92 0 133 8 213 41 44 19 46 31 11 72 -20 24 -48 37 -137 65
-118 37 -159 65 -170 116 -5 22 1 29 46 55 37 21 67 51 105 105 52 73 54 76
47 125 -11 85 -42 196 -96 336 -48 128 -75 209 -97 292 -16 58 6 67 180 76
l143 8 100 58 c332 192 775 344 1345 458 177 36 471 86 635 108 76 11 96 18
134 46 113 86 211 113 491 133 292 20 395 43 496 108 82 54 132 105 265 273
117 146 166 200 227 247 l33 25 77 -40 c169 -89 371 -141 644 -164 73 -6 288
-10 478 -10 l345 1 150 -111 c150 -112 243 -165 323 -190 81 -24 292 -229 484
-470 51 -64 175 -229 275 -365 248 -337 336 -447 483 -598 137 -141 238 -227
373 -316 72 -48 95 -69 123 -117 139 -232 452 -357 807 -323 344 32 634 197
741 422 35 74 63 184 51 196 -16 16 -125 2 -205 -26 -47 -17 -137 -49 -200
-71 -137 -49 -202 -53 -270 -18 -51 25 -90 81 -71 100 6 6 62 14 124 18 61 4
113 7 114 8 15 9 33 37 33 52 0 43 -236 129 -431 159 -41 6 -163 14 -271 17
l-198 6 -88 91 c-153 159 -257 296 -533 702 -191 281 -238 345 -284 380 -43
32 -67 28 -81 -15 l-11 -34 -82 79 c-115 110 -187 224 -344 544 -122 249 -214
408 -281 483 -25 27 -25 27 -161 27 -161 0 -249 17 -326 63 -57 34 -105 94
-115 142 l-5 30 128 0 128 1 170 59 c164 56 174 58 275 59 103 0 106 0 165
-36 152 -91 256 -128 365 -128 l55 0 28 -53 c15 -29 52 -77 81 -106 l54 -53
37 12 c64 21 157 7 292 -44 174 -66 223 -61 297 26 50 58 47 78 -25 153 -57
60 -61 66 -55 99 7 35 47 77 101 106 23 12 29 9 94 -53 46 -43 85 -70 112 -78
41 -13 42 -13 73 23 175 200 190 211 287 209 l58 -1 11 38 c13 50 1 91 -48
156 -21 28 -44 61 -50 73 -20 37 -13 123 9 123 5 0 43 -16 85 -37 43 -20 98
-38 125 -41 48 -4 49 -4 63 29 8 19 19 59 25 90 7 31 18 64 25 74 13 18 15 17
47 -2 45 -28 133 -53 184 -53 118 0 229 76 253 173 19 75 16 144 -9 165 -103
86 -114 110 -159 327 -16 78 -36 160 -46 184 l-17 43 -58 -5 c-42 -4 -86 -18
-155 -52 -54 -26 -117 -50 -141 -53 -42 -5 -43 -4 -43 25 0 38 21 88 65 158
44 68 60 134 48 199 -11 66 -35 82 -163 106 -156 30 -178 54 -146 164 22 76
21 113 -5 121 -11 4 -44 26 -73 50 -116 94 -160 99 -241 25 -60 -54 -82 -61
-110 -30 -17 19 -17 23 4 106 12 48 19 99 16 113 -7 33 -106 103 -186 130
-176 62 -353 27 -634 -125 -77 -42 -191 -103 -253 -136 l-112 -60 -38 34 c-56
51 -152 116 -314 213 -81 49 -172 108 -203 132 l-55 43 40 53 c22 28 52 75 66
103 l25 51 41 -20 c40 -20 44 -20 102 -5 34 9 69 19 78 23 15 6 17 -2 20 -57
l3 -63 52 -3 c47 -3 55 0 90 31 22 20 52 64 70 103 100 216 123 268 123 284 0
23 -38 55 -82 69 -37 12 -78 52 -78 76 0 7 12 21 28 30 72 46 138 105 222 197
l92 100 -20 22 c-35 39 -34 44 24 107 l56 62 -6 54 c-12 101 -47 143 -168 204
-110 56 -138 98 -183 289 -37 157 -100 246 -209 296 -167 76 -352 80 -766 18
-91 -14 -239 -33 -330 -44 -236 -27 -360 -60 -505 -133 -190 -95 -360 -264
-451 -449 -16 -32 -37 -61 -51 -67 -13 -6 -62 -11 -109 -11 l-84 0 -68 -67
c-84 -84 -123 -150 -224 -378 -118 -268 -181 -365 -285 -436 -114 -79 -321
-124 -654 -144 l-106 -7 -21 44 c-45 94 -35 161 29 211 19 14 92 53 163 88
146 70 187 102 211 161 16 41 14 102 -6 139 -15 29 40 59 159 89 l42 11 0 146
c0 169 12 149 -130 223 -52 27 -104 56 -114 65 -19 15 -19 15 5 41 45 49 80
57 279 64 199 6 223 12 283 68 46 44 28 90 -45 111 -49 14 -88 37 -88 51 0 5
18 27 40 49 59 58 54 73 -32 109 -221 91 -423 110 -931 88 -192 -9 -383 -16
-426 -16 l-78 0 -259 -130 c-313 -156 -391 -206 -510 -324 -71 -71 -99 -108
-127 -166 -70 -143 -74 -175 -64 -506 2 -63 -27 -110 -165 -267 -130 -148
-143 -174 -156 -317 -9 -110 -12 -120 -61 -218 -44 -89 -51 -109 -51 -162 0
-114 53 -208 266 -476 132 -167 192 -257 196 -295 2 -18 -8 -31 -45 -56 -64
-43 -119 -59 -312 -89 -242 -38 -303 -55 -361 -99 -18 -14 -37 -25 -43 -25
-24 0 -201 131 -285 211 -124 118 -202 230 -301 434 -168 341 -301 788 -366
1225 -17 116 -20 172 -16 280 10 227 -17 312 -216 702 -124 243 -164 342 -192
473 -18 84 -19 220 -4 298 l12 56 -59 64 c-33 36 -88 116 -123 178 -114 201
-135 233 -191 290 -70 70 -131 100 -229 110 -82 9 -403 10 -436 2z"/>
</g>
</svg>
